<svg xmlns="http://www.w3.org/2000/svg" fill="white" viewBox="0 0 151.61 50.54">
<path d="M0,29.15H64.14V50.54H0Z" fill="#82bc00"/><path d="M0,0H64.14V21.38H0Z" fill="#00a1df"/><path d="M128.27,46.17l-.28.06a9.71,9.71,0,0,1-2.08.26c-1.67,0-3.65-.85-3.65-4.9,0-2.08.36-4.83,3.46-4.83h0a8.9,8.9,0,0,1,2.29.42l.24.08ZM128.79,26l-.52.09V33.6l-.44-.13-.13,0a10.59,10.59,0,0,0-2.84-.5c-6.25,0-7.57,4.73-7.57,8.69,0,5.43,3,8.55,8.36,8.55a17.17,17.17,0,0,0,5.6-.79c1.54-.49,2.1-1.2,2.1-2.7V25.26c-1.5.29-3,.53-4.55.78m18,20.27-.26.07-1,.25a9.44,9.44,0,0,1-2.3.37c-1.47,0-2.35-.73-2.35-2,0-.8.36-2.14,2.76-2.14h3.1Zm-2.18-13.47A21.14,21.14,0,0,0,138.3,34l-1.6.49.53,3.6,1.56-.51a18.33,18.33,0,0,1,5.19-.87c.7,0,2.8,0,2.8,2.27v1h-2.92c-5.3,0-7.77,1.69-7.77,5.32,0,3.11,2.26,4.95,6.08,4.95a18.81,18.81,0,0,0,4.23-.57h.15l.47.08c1.49.27,3,.53,4.53.84V38.64c0-3.85-2.32-5.8-6.89-5.8M109.85,46.31l-.26.07-1,.25a9.28,9.28,0,0,1-2.29.37c-1.47,0-2.35-.73-2.35-2,0-.8.36-2.14,2.76-2.14h3.1Zm-2.18-13.47A21.2,21.2,0,0,0,101.31,34l-1.6.49.54,3.6,1.55-.51a18.33,18.33,0,0,1,5.2-.87c.68,0,2.78,0,2.78,2.27v1h-2.91c-5.3,0-7.78,1.69-7.78,5.32,0,3.11,2.27,4.95,6.08,4.95a19,19,0,0,0,4.24-.57h.15l.47.08c1.49.27,3,.53,4.53.84V38.64c0-3.86-2.32-5.8-6.89-5.8m-17.89,0A12.77,12.77,0,0,0,84.62,34l-.19.09L84.27,34a7.82,7.82,0,0,0-4.64-1.12,18.71,18.71,0,0,0-5.46.81c-1.62.5-2.25,1.27-2.25,2.73V50H77V37.46l.24-.08a6.81,6.81,0,0,1,2.23-.4c1.47,0,2.2.77,2.2,2.3V50h5V39.06A2.89,2.89,0,0,0,86.49,38l-.16-.33.34-.15A6,6,0,0,1,89.14,37a2,2,0,0,1,2.22,1.79,2.18,2.18,0,0,1,0,.51V50h5V38.77c0-4-2.14-5.89-6.56-5.89m53.33-18.94a16.38,16.38,0,0,1-3-.27l-.28,0V6.28a3.35,3.35,0,0,0-.14-1l-.16-.31.32-.15a1.17,1.17,0,0,0,.24-.09l.06,0,.33-.11.15,0a10.41,10.41,0,0,1,2.61-.3h0c3.1,0,3.46,2.75,3.46,4.84,0,4-2,4.89-3.65,4.89M143.1,0H143c-2.91,0-5.91.79-7,2.36a4.61,4.61,0,0,0-.91,2.84h0v7.55a2,2,0,0,1-.16.94l-.16.34h-9.2V8.78h0c-.11-5.54-3.4-8.58-8.14-8.58h-4.63l-.54,3.65h4.61c2.42,0,3.69,2.07,3.69,5.23v5.28l-.33-.16a2.88,2.88,0,0,0-1.09-.15h-8c-.15,1-.34,2.31-.55,3.63h24.47c.82-.15,1.81-.3,2.64-.45a13.91,13.91,0,0,0,5.14.92c5.32,0,8.75-3.55,8.75-9S148.28.12,143.1,0M100.19,19.89h.22c5.31,0,7.78-1.75,7.78-6.08,0-3.11-2.27-5.59-6.08-5.59h-4.9a2.09,2.09,0,0,1-2.33-1.83,2.67,2.67,0,0,1,0-.4c0-1,.36-2.15,2.75-2.15h10.7c.22-1.4.35-2.26.55-3.64H97.76C92.58.2,90,2.36,90,6s2.28,5.44,6.08,5.44H101a2.3,2.3,0,0,1,2.34,2.27v.1c0,.81-.36,2.47-2.75,2.47h-.83l-15.67,0H81.19c-2.41,0-4.11-1.38-4.11-4.54V9.51c0-3.32,1.31-5.38,4.11-5.38h4.69c.2-1.41.33-2.29.53-3.65H80.06c-4.75,0-8,3.19-8.14,8.73h0v2.48c.12,5.54,3.39,8.18,8.14,8.18H84.7l8.49,0Z"/></svg>